# xmcd
# Copyright (C) 1995-1998 Ti Kan
#
# Track frame offsets:
#       150
#       20519
#       76898
#       100106
#       134861
#       165735
#
# Disc length: 2487 seconds
#
# Revision: 0
# Processed by: cddbd v1.5.2PL0 Copyright (c) Steve Scherf et al.
# Submitted via: CD-Transfer v1.0
#
DISCID=4709b506
DTITLE=Emerson, Lake and Palmer - K. Emerson, G. Lake, C. Palmer
DYEAR=70
DGENRE=
TTITLE0=Barbarian, The
TTITLE1=Take A Pebble
TTITLE2=Knife-Edge
TTITLE3=Three Fates, The
TTITLE4=Tank
TTITLE5=Lucky Man
EXTD=
EXTT0=
EXTT1=
EXTT2=
EXTT3=
EXTT4=
EXTT5=
PLAYORDER=
